<?xml version="1.0" standalone="no"?>
<!DOCTYPE svg PUBLIC "-//W3C//DTD SVG 20010904//EN"
 "http://www.w3.org/TR/2001/REC-SVG-20010904/DTD/svg10.dtd">
<svg version="1.0" xmlns="http://www.w3.org/2000/svg"
 width="779.000000pt" height="254.000000pt" viewBox="0 0 779.000000 254.000000"
 preserveAspectRatio="xMidYMid meet">

<g transform="translate(0.000000,254.000000) scale(0.100000,-0.100000)"
fill="#000000" stroke="none">
<path d="M1860 2353 c-14 -2 -58 -13 -99 -24 -40 -11 -82 -17 -93 -13 -22 7
-71 -32 -61 -49 3 -5 9 -38 12 -72 l7 -63 -46 -6 c-39 -6 -47 -4 -60 16 -86
129 -110 142 -245 132 -55 -4 -123 -6 -151 -5 -47 2 -54 -1 -78 -30 -61 -72
-161 -312 -249 -599 -52 -167 -67 -267 -66 -435 1 -161 -19 -425 -37 -505 -18
-77 -59 -156 -96 -183 -24 -18 -30 -19 -60 -7 -18 8 -50 25 -70 38 l-38 25
-62 -27 c-154 -67 -147 -81 42 -97 81 -6 138 -17 193 -36 l78 -28 60 65 c33
36 72 87 88 113 l28 48 17 -63 c33 -123 41 -133 132 -157 40 -11 41 -13 47
-59 12 -102 41 -126 194 -163 98 -24 241 -29 286 -10 46 18 407 52 602 56 245
5 579 58 623 98 56 51 66 90 70 257 4 155 -16 393 -39 473 -5 21 -26 56 -46
77 l-35 39 7 73 c4 49 0 128 -14 243 -40 334 -60 390 -163 445 -36 19 -97 54
-134 77 -62 37 -207 93 -242 93 -7 0 -22 21 -33 48 -88 203 -104 223 -188 221
-31 -1 -67 -4 -81 -6z m148 -36 c31 -32 86 -133 97 -180 6 -21 3 -24 -17 -24
-19 0 -26 9 -40 53 -22 68 -74 151 -99 159 -26 9 -24 25 4 25 13 0 37 -14 55
-33z m-54 -20 c41 -41 76 -115 76 -160 0 -15 -5 -18 -22 -13 -13 3 -65 6 -116
6 l-93 0 -16 38 c-8 20 -29 56 -46 79 -17 24 -28 45 -26 48 7 6 159 43 182 44
10 1 37 -18 61 -42z m-257 -33 c39 -42 77 -110 68 -124 -3 -6 -15 -10 -26 -10
-15 0 -19 7 -19 35 0 29 -9 44 -44 80 -41 40 -47 55 -23 55 5 0 25 -16 44 -36z
m-294 -19 c31 -15 97 -98 97 -123 0 -6 -9 -12 -19 -12 -11 0 -50 -11 -89 -24
l-69 -23 -63 83 c-35 46 -67 84 -72 84 -4 0 -8 4 -8 9 0 22 180 27 223 6z
m275 -25 c30 -45 26 -85 -8 -85 -23 0 -25 4 -30 63 -6 69 2 74 38 22z m-530
16 c30 -16 47 -34 112 -120 l44 -58 -24 -20 -25 -20 -15 35 c-19 46 -88 132
-119 149 -21 11 -25 10 -42 -11 -10 -13 -19 -31 -19 -40 0 -11 7 -7 24 14 27
34 34 31 86 -35 29 -36 29 -37 15 -86 -8 -27 -23 -65 -34 -84 -48 -89 -111
-431 -111 -609 0 -69 -15 -104 -90 -206 -39 -53 -123 -135 -139 -135 -48 0
-77 226 -50 403 24 160 171 593 251 737 55 99 80 115 136 86z m707 -125 c38
-7 36 -8 -35 -15 -112 -11 -237 -34 -311 -56 -110 -33 -177 -96 -216 -204 -29
-80 -93 -388 -109 -519 -22 -189 -23 -197 -37 -192 -7 2 -32 9 -56 15 l-44 12
7 176 c17 458 85 634 279 722 56 25 165 54 242 63 55 7 240 6 280 -2z m242
-26 c101 -19 206 -55 283 -96 33 -18 59 -33 57 -35 -1 -2 -34 1 -72 7 -128 17
-361 26 -475 18 -176 -13 -266 -45 -346 -121 -83 -79 -147 -267 -179 -523 -9
-71 -18 -144 -21 -161 -4 -26 -11 -33 -43 -42 -21 -7 -57 -12 -80 -12 -36 0
-42 3 -37 18 2 9 7 58 11 107 11 141 79 481 116 581 57 153 145 203 419 239
171 22 253 32 271 34 9 0 53 -6 96 -14z m-867 -65 c-1 -14 -54 -80 -65 -80 -3
0 1 10 9 23 7 12 19 39 26 61 9 28 15 35 21 25 5 -8 9 -21 9 -29z m1026 -60
c220 -21 317 -57 354 -130 57 -111 115 -660 70 -660 -4 0 -25 8 -46 17 -33 14
-79 17 -314 17 -426 1 -554 -26 -642 -134 -73 -91 -99 -272 -79 -552 7 -99 17
-192 22 -207 14 -37 48 -71 88 -88 18 -8 32 -16 30 -18 -2 -1 -52 -8 -111 -14
-134 -15 -199 0 -247 55 -17 19 -31 38 -31 42 0 4 -4 33 -9 64 -6 34 -6 189
-1 400 8 296 16 408 47 658 10 86 61 267 92 331 60 121 154 187 305 214 88 16
326 18 472 5z m-1221 -769 c-5 -22 -12 -31 -27 -31 -19 0 -20 -5 -15 -47 3
-27 12 -52 21 -59 14 -10 18 -39 23 -168 6 -154 6 -157 -17 -181 -13 -14 -30
-25 -37 -25 -7 0 -24 24 -38 53 -13 28 -34 68 -47 88 l-22 37 38 127 c27 88
50 145 78 187 42 63 54 69 43 19z m1594 -26 c99 -36 117 -54 147 -154 17 -57
18 -91 2 -91 -7 0 -89 -9 -183 -20 -256 -30 -562 -44 -779 -35 l-188 7 5 40
c3 22 20 69 37 105 39 79 85 112 192 137 116 27 235 35 488 31 184 -3 245 -7
279 -20z m-1467 -151 c57 -6 100 0 151 21 17 7 17 -8 11 -321 -8 -385 -3 -425
55 -483 20 -20 57 -43 81 -51 l45 -14 -43 -6 c-73 -11 -258 23 -333 60 -19 10
-41 31 -49 47 -15 30 -27 295 -29 605 l-1 168 25 -10 c14 -5 53 -12 87 -16z
m1639 -184 c4 -36 7 -135 8 -221 1 -167 -7 -210 -50 -269 -27 -36 -46 -42
-239 -76 -133 -23 -475 -47 -695 -48 -78 -1 -151 34 -176 84 -27 55 -49 385
-33 504 l7 47 75 -3 76 -3 -4 -65 c-10 -147 -7 -180 19 -201 26 -21 71 -25
102 -9 28 16 24 51 -21 162 -22 55 -40 102 -40 104 0 2 54 4 120 4 162 0 443
18 625 40 83 10 166 17 185 16 l35 -1 6 -65z"/>
<path d="M1903 1759 c-108 -10 -166 -23 -183 -43 -17 -21 -50 -189 -50 -255 0
-81 23 -121 85 -145 44 -18 74 -20 265 -20 377 0 490 43 490 186 0 56 -26 212
-39 236 -23 42 -78 52 -284 51 -105 -1 -234 -5 -284 -10z m511 -23 c37 -16 38
-17 60 -128 30 -144 15 -217 -49 -244 -88 -36 -176 -47 -395 -48 -186 -1 -221
1 -263 17 -65 26 -81 58 -74 151 2 39 12 104 22 144 16 69 19 75 52 89 75 31
582 46 647 19z"/>
<path d="M5925 2001 c-3 -6 -19 -11 -34 -11 -66 0 -118 -87 -109 -182 8 -79
59 -116 121 -87 75 34 57 182 -23 191 -44 5 -22 30 32 37 37 5 43 9 43 30 0
26 -19 39 -30 22z m-23 -166 c22 -49 -25 -98 -60 -63 -17 17 -15 54 4 72 22
23 43 20 56 -9z"/>
<path d="M3124 1988 c-8 -13 -13 -234 -6 -255 6 -18 106 -17 141 2 33 16 41
33 41 81 0 43 -27 71 -77 79 -58 10 -63 13 -63 35 0 18 6 20 64 20 49 0 65 4
70 16 3 9 4 20 0 25 -8 14 -161 11 -170 -3z m120 -160 c17 -28 -5 -52 -49 -56
-32 -3 -37 -1 -31 13 3 9 6 28 6 41 0 22 4 25 31 22 18 -2 37 -11 43 -20z"/>
<path d="M4013 1908 c-6 -8 -8 -66 -4 -148 6 -126 7 -135 26 -135 16 0 21 8
23 43 3 39 5 42 31 42 64 0 101 65 81 141 -13 46 -40 63 -86 56 -19 -3 -34 -2
-34 4 0 13 -26 11 -37 -3z m113 -74 c10 -38 -10 -74 -41 -74 -23 0 -25 4 -25
44 0 26 5 46 13 49 29 12 47 6 53 -19z"/>
<path d="M3359 1881 c-24 -25 -29 -38 -29 -79 0 -57 19 -80 74 -89 40 -6 92
11 101 35 9 25 -11 37 -40 24 -30 -14 -75 -16 -75 -3 0 5 14 14 30 21 42 18
80 49 80 66 0 26 -39 54 -76 54 -26 0 -43 -8 -65 -29z m61 -41 c-45 -25 -58
-25 -35 0 10 11 30 20 44 20 25 -1 25 -2 -9 -20z"/>
<path d="M3578 1838 c-3 -64 -6 -73 -23 -76 -11 -2 -24 -8 -29 -13 -14 -13 13
-39 40 -39 39 0 54 25 54 91 l0 59 35 0 c35 0 35 0 36 -47 1 -65 12 -97 32
-101 15 -3 17 8 17 97 l0 101 -80 0 -79 0 -3 -72z"/>
<path d="M3829 1896 c-28 -16 -59 -71 -59 -104 0 -59 83 -98 147 -68 56 27 81
112 45 156 -23 28 -96 37 -133 16z m96 -55 c14 -46 -45 -99 -84 -74 -24 15
-24 36 -1 66 26 33 75 37 85 8z"/>
<path d="M4194 1898 c-4 -6 10 -44 32 -83 l38 -73 -18 -40 c-20 -44 -18 -75 4
-80 20 -3 146 266 131 281 -17 17 -40 -1 -63 -48 -12 -25 -24 -45 -27 -45 -4
0 -18 23 -33 50 -27 49 -49 62 -64 38z"/>
<path d="M4452 1894 c-45 -31 -66 -109 -39 -145 16 -21 51 -39 77 -39 31 0 80
28 80 46 0 21 -24 28 -50 14 -35 -19 -70 -5 -70 29 0 43 56 82 75 51 12 -19
35 -10 35 13 0 41 -67 60 -108 31z"/>
<path d="M4647 1899 c-21 -12 -57 -81 -57 -109 0 -30 53 -80 85 -80 39 0 87
28 83 48 -4 17 -10 17 -69 5 -35 -7 -56 19 -43 54 13 38 37 50 67 34 27 -14
47 -8 47 14 0 16 -50 45 -77 45 -10 0 -26 -5 -36 -11z"/>
<path d="M4795 1897 c-3 -7 -5 -52 -3 -98 3 -76 5 -84 23 -84 16 0 21 8 23 43
4 54 20 54 54 -3 27 -45 54 -58 64 -31 6 17 -10 51 -38 83 l-20 22 27 26 c26
27 28 55 3 55 -19 0 -33 -12 -47 -37 -16 -31 -39 -29 -43 4 -3 30 -34 44 -43
20z"/>
<path d="M5004 1876 c-26 -26 -34 -43 -34 -69 0 -49 8 -65 41 -82 48 -25 87
-19 125 19 29 29 34 41 34 79 0 57 -32 87 -92 87 -32 0 -47 -7 -74 -34z m114
-49 c4 -32 -21 -67 -49 -67 -33 0 -49 12 -49 38 0 37 28 64 64 60 26 -2 32 -8
34 -31z"/>
<path d="M5237 1899 c-25 -14 -47 -62 -47 -102 0 -59 55 -97 122 -83 40 8 58
23 58 48 0 17 -4 19 -22 13 -39 -13 -98 -17 -98 -8 0 5 25 21 55 36 44 22 55
32 55 51 0 45 -75 73 -123 45z m69 -48 c-8 -12 -66 -32 -66 -22 0 4 5 12 12
19 14 14 62 17 54 3z"/>
<path d="M5618 1894 c-33 -17 -58 -62 -58 -103 0 -37 49 -81 90 -81 68 0 110
45 110 117 0 44 -6 55 -37 72 -29 15 -72 13 -105 -5z m90 -51 c25 -49 -48
-109 -86 -71 -18 18 -15 45 8 68 25 25 66 26 78 3z"/>
<path d="M5995 1898 c-2 -7 -6 -50 -10 -94 -5 -70 -4 -82 10 -88 9 -3 63 -6
121 -6 78 0 102 -3 99 -12 -7 -20 11 -42 29 -35 18 7 23 76 7 93 -6 5 -11 41
-13 79 -3 62 -5 70 -23 70 -18 0 -20 -8 -23 -72 l-3 -73 -30 0 -31 0 3 73 c4
67 2 72 -16 72 -18 0 -20 -8 -23 -72 l-3 -73 -31 0 -31 0 5 63 c6 70 3 87 -18
87 -8 0 -16 -6 -19 -12z"/>
<path d="M6309 1881 c-24 -25 -29 -38 -29 -79 0 -57 19 -80 74 -89 40 -6 92
11 101 35 9 25 -11 37 -40 24 -30 -14 -75 -16 -75 -3 0 5 14 14 30 21 42 18
80 49 80 66 0 26 -39 54 -76 54 -26 0 -43 -8 -65 -29z m61 -41 c-45 -25 -58
-25 -35 0 10 11 30 20 44 20 25 -1 25 -2 -9 -20z"/>
<path d="M6532 1894 c-45 -31 -66 -109 -39 -145 16 -21 51 -39 77 -39 31 0 80
28 80 46 0 21 -24 28 -50 14 -35 -19 -70 -5 -70 29 0 43 56 82 75 51 12 -19
35 -10 35 13 0 41 -67 60 -108 31z"/>
<path d="M6674 1896 c-8 -22 4 -36 31 -36 23 0 24 -3 27 -72 3 -65 5 -73 23
-73 18 0 20 8 23 73 3 70 4 72 28 72 21 0 25 4 22 23 -3 20 -9 22 -76 25 -57
2 -74 0 -78 -12z"/>
<path d="M6864 1897 c-3 -8 -4 -52 -2 -98 l3 -84 53 1 c80 2 125 41 88 76 -9
8 -12 26 -9 50 5 33 2 38 -25 52 -38 20 -101 21 -108 3z m85 -36 c18 -11 5
-31 -20 -31 -10 0 -19 2 -19 4 0 2 -3 11 -6 20 -7 18 21 22 45 7z m10 -85 c9
-11 8 -15 -5 -20 -32 -12 -54 -7 -54 14 0 24 41 28 59 6z"/>
<path d="M7074 1876 c-26 -26 -34 -43 -34 -69 0 -49 8 -65 41 -82 48 -25 87
-19 125 19 29 29 34 41 34 79 0 57 -32 87 -92 87 -32 0 -47 -7 -74 -34z m114
-49 c4 -32 -21 -67 -49 -67 -33 0 -49 12 -49 38 0 37 28 64 64 60 26 -2 32 -8
34 -31z"/>
<path d="M4073 1388 c-6 -8 -8 -66 -4 -148 6 -126 7 -135 26 -135 16 0 21 8
23 43 3 39 5 42 31 42 64 0 101 65 81 141 -13 46 -40 63 -86 56 -19 -3 -34 -2
-34 4 0 13 -26 11 -37 -3z m113 -74 c10 -38 -10 -74 -41 -74 -23 0 -25 4 -25
44 0 26 5 46 13 49 29 12 47 6 53 -19z"/>
<path d="M3125 1376 c-11 -8 -16 -20 -12 -29 5 -13 15 -16 50 -11 28 4 47 2
51 -5 5 -7 -5 -11 -29 -11 -32 0 -36 -3 -33 -22 2 -18 11 -24 37 -28 31 -4 33
-6 18 -19 -12 -9 -30 -12 -56 -7 -31 5 -40 3 -45 -11 -10 -24 20 -43 67 -43
55 0 97 43 97 100 0 77 -87 129 -145 86z"/>
<path d="M3305 1377 c-3 -7 -5 -52 -3 -98 3 -76 5 -84 23 -84 16 0 21 8 23 43
2 28 7 42 15 39 12 -4 52 -58 59 -79 6 -18 38 -1 38 20 0 11 -11 35 -24 54
-25 37 -21 59 12 84 8 6 12 16 8 22 -13 21 -44 13 -66 -18 -27 -37 -38 -38
-42 -3 -3 30 -34 44 -43 20z"/>
<path d="M3527 1379 c-21 -12 -57 -81 -57 -109 0 -30 53 -80 85 -80 39 0 87
28 83 48 -4 17 -10 17 -69 5 -35 -7 -56 19 -43 54 13 38 37 50 67 34 27 -14
47 -8 47 14 0 16 -50 45 -77 45 -10 0 -26 -5 -36 -11z"/>
<path d="M3680 1290 c0 -93 1 -100 20 -100 21 0 25 13 21 63 -3 42 24 34 55
-18 14 -25 32 -45 40 -45 27 0 26 29 0 75 -22 36 -25 49 -16 65 6 11 15 20 20
20 17 0 11 30 -7 37 -11 4 -25 -4 -43 -25 -33 -40 -50 -41 -50 -2 0 23 -4 30
-20 30 -19 0 -20 -7 -20 -100z"/>
<path d="M3845 1377 c-3 -7 12 -45 33 -82 l39 -69 -20 -48 c-10 -26 -17 -54
-14 -63 10 -26 37 -17 49 16 6 18 33 77 60 132 27 55 47 106 44 114 -11 28
-37 11 -63 -42 l-27 -54 -31 52 c-31 52 -60 71 -70 44z"/>
<path d="M4310 1378 c-32 -26 -50 -64 -50 -104 0 -34 5 -47 28 -64 46 -37 146
-10 128 35 -4 12 -12 15 -24 10 -37 -16 -68 -16 -82 0 -11 13 -11 21 4 52 17
36 29 39 78 18 24 -10 36 22 16 41 -20 20 -80 27 -98 12z"/>
<path d="M4491 1365 c-81 -69 -49 -174 54 -175 84 0 138 118 80 175 -34 34
-93 34 -134 0z m107 -53 c8 -55 -55 -94 -92 -57 -29 30 11 88 58 83 24 -2 32
-9 34 -26z"/>
<path d="M4684 1377 c-3 -8 -4 -52 -2 -98 l3 -84 53 1 c80 2 125 41 88 76 -9
8 -12 26 -9 50 5 33 2 38 -25 52 -38 20 -101 21 -108 3z m85 -36 c18 -11 5
-31 -20 -31 -10 0 -19 2 -19 4 0 2 -3 11 -6 20 -7 18 21 22 45 7z m10 -85 c9
-11 8 -15 -5 -20 -32 -12 -54 -7 -54 14 0 24 41 28 59 6z"/>
<path d="M4901 1365 c-81 -69 -49 -174 54 -175 84 0 138 118 80 175 -34 34
-93 34 -134 0z m107 -53 c8 -55 -55 -94 -92 -57 -29 30 11 88 58 83 24 -2 32
-9 34 -26z"/>
<path d="M5127 1384 c-4 -4 -7 -22 -7 -40 0 -41 -16 -84 -36 -99 -22 -16 -15
-79 9 -83 12 -3 20 4 24 17 5 18 13 21 64 21 52 0 59 -2 59 -20 0 -13 7 -20
20 -20 16 0 20 7 20 33 0 18 -4 37 -9 43 -6 5 -11 41 -13 79 l-3 70 -60 3
c-34 2 -64 0 -68 -4z m83 -89 c0 -54 0 -55 -30 -55 -16 0 -30 2 -30 5 0 2 5
27 11 55 8 39 15 50 30 50 16 0 19 -7 19 -55z"/>
<path d="M5334 1356 c-26 -26 -34 -43 -34 -69 0 -49 8 -65 41 -82 48 -25 87
-19 125 19 29 29 34 41 34 79 0 57 -32 87 -92 87 -32 0 -47 -7 -74 -34z m114
-49 c4 -32 -21 -67 -49 -67 -33 0 -49 12 -49 38 0 37 28 64 64 60 26 -2 32 -8
34 -31z"/>
<path d="M5534 1377 c-3 -8 -4 -52 -2 -98 l3 -84 53 1 c80 2 125 41 88 76 -9
8 -12 26 -9 50 5 33 2 38 -25 52 -38 20 -101 21 -108 3z m85 -36 c18 -11 5
-31 -20 -31 -10 0 -19 2 -19 4 0 2 -3 11 -6 20 -7 18 21 22 45 7z m10 -85 c9
-11 8 -15 -5 -20 -32 -12 -54 -7 -54 14 0 24 41 28 59 6z"/>
<path d="M5878 1378 c-2 -7 -1 -51 2 -98 6 -105 17 -110 91 -40 29 27 55 50
57 50 3 0 2 -17 -1 -37 -7 -44 4 -69 27 -60 14 6 16 21 14 99 -4 117 -16 123
-82 38 -27 -34 -51 -58 -54 -55 -4 3 -9 30 -12 58 -4 37 -10 53 -21 55 -9 2
-18 -3 -21 -10z"/>
<path d="M3123 873 c-9 -3 -13 -31 -13 -91 0 -93 8 -119 34 -109 13 5 16 22
16 81 l0 75 48 3 c40 3 47 6 50 26 3 21 0 22 -60 21 -35 0 -69 -3 -75 -6z"/>
<path d="M4834 867 c-2 -7 -3 -74 -2 -148 3 -126 4 -134 23 -134 16 0 21 8 23
43 3 40 5 42 35 42 56 1 87 40 87 110 0 57 -37 95 -86 87 -18 -3 -36 -1 -39 4
-9 13 -35 11 -41 -4z m111 -91 c0 -42 -20 -64 -49 -53 -10 4 -16 18 -16 40 0
39 17 59 45 55 16 -2 20 -11 20 -42z"/>
<path d="M3285 857 c-3 -7 -5 -51 -3 -98 4 -106 16 -111 92 -39 l55 52 3 -49
c3 -40 6 -48 23 -48 18 0 20 8 23 93 4 124 -9 130 -87 42 l-56 -64 -5 60 c-4
46 -9 60 -23 62 -9 2 -19 -3 -22 -11z"/>
<path d="M3562 858 c-7 -7 -12 -31 -12 -54 0 -31 -7 -51 -26 -73 -17 -20 -24
-40 -22 -58 4 -35 37 -45 45 -14 5 18 13 21 63 21 50 0 58 -3 63 -21 4 -13 12
-20 24 -17 24 4 31 65 9 74 -13 5 -16 22 -16 80 l0 74 -58 0 c-32 0 -63 -5
-70 -12z m84 -83 l1 -55 -31 0 -32 0 10 55 c9 46 14 55 31 55 18 0 21 -6 21
-55z"/>
<path d="M3789 856 c-28 -16 -59 -71 -59 -104 0 -59 83 -98 147 -68 56 27 81
112 45 156 -23 28 -96 37 -133 16z m96 -55 c14 -46 -45 -99 -84 -74 -24 15
-24 36 -1 66 26 33 75 37 85 8z"/>
<path d="M3971 856 c-8 -9 -11 -45 -9 -98 l3 -83 55 1 c69 1 100 17 100 49 0
13 -4 26 -9 30 -5 3 -7 20 -4 39 4 27 1 36 -22 54 -32 25 -96 30 -114 8z m84
-46 c0 -8 -10 -16 -22 -18 -18 -3 -23 2 -23 18 0 16 5 21 23 18 12 -2 22 -10
22 -18z m4 -69 c19 -12 4 -31 -25 -31 -17 0 -24 5 -24 20 0 21 24 27 49 11z"/>
<path d="M4403 858 c-10 -13 -10 -175 1 -185 3 -3 11 -3 19 0 19 7 28 59 21
108 l-7 39 47 0 46 0 0 -62 c0 -70 10 -94 34 -85 14 6 16 21 14 99 l-3 93 -81
3 c-57 2 -84 -1 -91 -10z"/>
<path d="M4663 858 c-26 -13 -53 -65 -53 -103 0 -41 50 -85 97 -85 46 0 83 23
83 52 0 17 -4 19 -22 13 -41 -13 -98 -17 -98 -7 0 5 20 17 45 26 51 20 75 48
68 77 -9 35 -74 49 -120 27z m63 -47 c-3 -5 -20 -14 -36 -20 -28 -9 -29 -9
-20 9 6 12 21 20 36 20 14 0 23 -4 20 -9z"/>
<path d="M5067 859 c-25 -14 -47 -62 -47 -102 0 -59 55 -97 122 -83 40 8 58
23 58 48 0 17 -4 19 -22 13 -39 -13 -98 -17 -98 -8 0 5 25 21 55 36 44 22 55
32 55 51 0 45 -75 73 -123 45z m69 -48 c-8 -12 -66 -32 -66 -22 0 4 5 12 12
19 14 14 62 17 54 3z"/>
<path d="M5244 857 c-3 -8 -4 -52 -2 -98 l3 -84 53 1 c80 2 125 41 88 76 -9 8
-12 26 -9 50 5 33 2 38 -25 52 -38 20 -101 21 -108 3z m85 -36 c18 -11 5 -31
-20 -31 -10 0 -19 2 -19 4 0 2 -3 11 -6 20 -7 18 21 22 45 7z m10 -85 c9 -11
8 -15 -5 -20 -32 -12 -54 -7 -54 14 0 24 41 28 59 6z"/>
<path d="M5461 845 c-81 -69 -49 -174 54 -175 84 0 138 118 80 175 -34 34 -93
34 -134 0z m107 -53 c8 -55 -55 -94 -92 -57 -29 30 11 88 58 83 24 -2 32 -9
34 -26z"/>
<path d="M5686 848 c-3 -13 -7 -41 -10 -63 -3 -24 -14 -46 -27 -55 -15 -12
-20 -25 -17 -51 4 -40 36 -54 45 -20 5 18 13 21 63 21 50 0 58 -3 63 -21 4
-13 12 -20 24 -17 24 4 30 55 9 71 -11 8 -16 33 -18 82 l-3 70 -62 3 c-58 3
-63 1 -67 -20z m84 -73 c0 -55 0 -55 -31 -55 -24 0 -30 3 -25 16 3 9 9 33 12
55 5 29 11 39 25 39 16 0 19 -8 19 -55z"/>
<path d="M5867 864 c-15 -16 -6 -82 15 -109 19 -24 26 -27 65 -22 l43 5 0 -34
c0 -27 4 -34 20 -34 19 0 20 7 20 95 0 77 -3 97 -15 102 -23 8 -29 -3 -27 -42
2 -29 -2 -37 -22 -46 -38 -18 -54 -6 -58 43 -3 41 -22 61 -41 42z"/>
<path d="M6068 858 c-2 -7 -1 -51 2 -98 6 -105 17 -110 91 -40 29 27 55 50 57
50 3 0 2 -17 -1 -37 -7 -44 4 -69 27 -60 14 6 16 21 14 99 -4 117 -16 123 -82
38 -27 -34 -51 -58 -54 -55 -4 3 -9 30 -12 58 -4 37 -10 53 -21 55 -9 2 -18
-3 -21 -10z"/>
<path d="M6310 770 c0 -93 1 -100 20 -100 21 0 25 13 21 63 -3 42 24 34 55
-18 14 -25 32 -45 40 -45 27 0 26 29 0 75 -22 36 -25 49 -16 65 6 11 15 20 20
20 17 0 11 30 -7 37 -11 4 -25 -4 -43 -25 -33 -40 -50 -41 -50 -2 0 23 -4 30
-20 30 -19 0 -20 -7 -20 -100z"/>
<path d="M6514 836 c-26 -26 -34 -43 -34 -69 0 -49 8 -65 41 -82 48 -25 87
-19 125 19 29 29 34 41 34 79 0 57 -32 87 -92 87 -32 0 -47 -7 -74 -34z m114
-49 c4 -32 -21 -67 -49 -67 -33 0 -49 12 -49 38 0 37 28 64 64 60 26 -2 32 -8
34 -31z"/>
<path d="M6722 862 c-9 -6 -12 -33 -10 -98 l3 -89 53 1 c29 1 63 9 77 18 25
17 33 50 15 61 -6 4 -8 21 -5 39 5 24 2 36 -14 50 -22 20 -99 32 -119 18z m83
-52 c0 -8 -10 -16 -22 -18 -18 -3 -23 2 -23 18 0 16 5 21 23 18 12 -2 22 -10
22 -18z m4 -69 c19 -12 4 -31 -25 -31 -17 0 -24 5 -24 20 0 21 24 27 49 11z"/>
<path d="M4175 790 c-13 -22 12 -31 76 -28 49 2 64 7 64 18 0 12 -15 16 -67
18 -41 2 -69 -1 -73 -8z"/>
</g>
</svg>
