<?xml version="1.0" standalone="no"?>
<!DOCTYPE svg PUBLIC "-//W3C//DTD SVG 20010904//EN"
 "http://www.w3.org/TR/2001/REC-SVG-20010904/DTD/svg10.dtd">
<svg version="1.0" xmlns="http://www.w3.org/2000/svg"
 width="406.000000pt" height="406.000000pt" viewBox="0 0 406.000000 406.000000"
 preserveAspectRatio="xMidYMid meet">

<g transform="translate(0.000000,406.000000) scale(0.100000,-0.100000)"
fill="#000000" stroke="none">
<path d="M2490 3679 c-46 -10 -113 -28 -147 -40 -45 -15 -75 -19 -102 -14 -45
7 -71 -3 -94 -39 -15 -22 -15 -29 -2 -58 12 -31 24 -183 14 -192 -2 -2 -34 -6
-70 -9 l-67 -6 -50 83 c-60 97 -105 141 -164 157 -48 13 -257 5 -320 -12 -26
-7 -44 -6 -57 1 -30 15 -73 12 -106 -9 -80 -49 -224 -380 -378 -871 -104 -329
-127 -453 -127 -685 0 -198 -17 -545 -35 -720 -22 -220 -77 -379 -152 -446
-52 -45 -99 -36 -221 43 -42 27 -66 38 -71 30 -3 -6 -44 -27 -90 -46 -132 -57
-168 -91 -122 -116 11 -5 100 -17 198 -26 179 -16 240 -30 345 -77 l57 -26 69
72 c120 124 174 195 187 250 4 15 11 29 15 32 4 3 21 -48 37 -112 15 -65 37
-131 48 -148 26 -37 81 -69 148 -84 l53 -11 12 -78 c7 -42 22 -97 35 -122 18
-37 33 -50 85 -76 70 -35 231 -77 361 -94 89 -12 183 -3 271 25 94 30 765 91
902 81 139 -9 336 15 742 91 128 24 143 29 178 61 48 44 95 139 109 222 20
116 -1 585 -36 805 -23 145 -41 192 -94 249 l-48 51 5 150 c6 218 -46 662 -98
835 -37 125 -105 196 -222 232 -21 6 -38 15 -38 19 0 11 -126 92 -198 128 -55
27 -172 68 -258 90 l-41 11 -58 141 c-96 233 -138 280 -254 278 -36 -1 -104
-10 -151 -20z m251 -44 c61 -65 66 -74 166 -312 4 -9 -8 -13 -40 -13 -42 0
-45 1 -50 33 -9 53 -45 139 -89 213 -45 74 -63 93 -90 94 -10 0 -18 7 -18 15
0 11 11 15 39 15 34 0 46 -6 82 -45z m-96 -19 c37 -32 60 -63 82 -113 37 -79
65 -171 55 -177 -4 -2 -72 0 -152 4 -80 5 -159 9 -176 9 -29 1 -33 6 -52 59
-12 31 -42 86 -68 121 -25 35 -42 67 -37 71 8 9 168 56 213 63 67 11 83 7 135
-37z m-374 -66 c55 -58 115 -169 106 -193 -4 -11 -18 -17 -36 -17 -28 0 -29 2
-28 43 1 34 -6 53 -37 100 -21 31 -42 57 -45 57 -16 1 -53 39 -47 49 14 22 41
10 87 -39z m-431 -36 c34 -19 140 -162 140 -188 0 -7 -31 -20 -72 -30 -40 -9
-100 -28 -132 -41 -33 -13 -63 -22 -67 -19 -5 2 -34 41 -66 86 -31 45 -79 108
-105 140 -54 65 -55 63 42 72 109 9 225 1 260 -20z m413 -46 c21 -33 27 -52
25 -83 -3 -38 -4 -40 -41 -43 -44 -4 -44 -4 -49 110 -4 85 -4 86 16 72 11 -7
33 -33 49 -56z m-833 47 c7 -8 18 -15 24 -15 18 0 97 -86 171 -189 l67 -93
-27 -24 c-38 -33 -51 -30 -66 14 -16 48 -31 72 -98 155 -61 77 -101 103 -130
88 -18 -10 -56 -89 -47 -98 9 -9 26 9 41 43 8 19 18 34 24 34 13 0 81 -67 115
-113 26 -35 28 -42 18 -75 -6 -21 -14 -50 -17 -67 -4 -16 -21 -59 -39 -95 -18
-36 -43 -110 -56 -165 -12 -55 -28 -118 -36 -140 -29 -89 -56 -295 -74 -570
-7 -99 -16 -193 -21 -208 -4 -16 -40 -79 -79 -141 -71 -115 -177 -234 -233
-263 -29 -15 -32 -14 -48 6 -10 12 -28 64 -40 116 -20 87 -21 114 -16 298 6
226 16 296 77 500 143 487 299 877 393 983 32 37 75 45 97 19z m1142 -213 c5
-5 -41 -14 -109 -21 -272 -29 -460 -73 -576 -134 -140 -74 -224 -236 -281
-543 -8 -45 -26 -131 -40 -190 -33 -145 -52 -274 -71 -479 -9 -93 -17 -171
-19 -173 -5 -4 -156 35 -164 43 -17 16 6 491 33 710 15 118 60 320 75 340 4 6
13 28 20 50 20 63 71 135 144 202 107 100 263 165 463 192 43 6 92 13 108 15
52 8 408 -3 417 -12z m264 -27 c197 -34 371 -93 487 -164 37 -23 72 -41 77
-41 6 0 10 -5 10 -11 0 -6 -7 -8 -17 -5 -21 9 -234 33 -402 46 -172 13 -325
13 -449 0 -116 -13 -307 -57 -342 -80 -14 -9 -51 -34 -84 -55 -180 -119 -291
-440 -351 -1009 -8 -81 -18 -152 -20 -157 -22 -35 -235 -68 -235 -36 0 8 7 85
15 173 18 195 39 337 70 469 13 55 33 150 45 210 60 306 138 450 281 518 113
53 278 87 618 127 96 11 177 22 179 25 8 8 22 6 118 -10z m-1298 -184 c-29
-32 -54 -57 -56 -56 -2 2 6 21 16 42 11 21 28 65 38 98 l17 60 19 -43 19 -43
-53 -58z m1627 -27 c88 -9 203 -27 255 -40 210 -54 261 -122 310 -414 58 -346
80 -780 38 -780 -5 0 -35 12 -66 28 l-57 27 -425 0 c-357 0 -443 -3 -536 -18
-282 -44 -392 -104 -466 -251 -35 -70 -78 -226 -84 -311 -18 -227 9 -752 42
-834 20 -50 88 -113 143 -131 23 -7 39 -16 36 -18 -3 -3 -81 -14 -173 -23
l-167 -18 -78 26 c-115 37 -162 87 -186 201 -14 67 -15 646 -1 942 11 242 35
545 51 635 5 33 11 74 13 90 26 220 93 463 164 600 94 179 269 274 557 304
118 13 429 5 630 -15z m-1879 -1198 c-7 -52 -9 -54 -34 -53 -25 2 -27 -2 -30
-38 -5 -52 17 -127 38 -132 14 -4 18 -23 23 -116 4 -62 7 -178 7 -259 l0 -148
-42 -30 c-23 -17 -46 -29 -52 -27 -5 2 -21 32 -36 68 -14 35 -45 94 -68 132
-23 37 -42 75 -42 83 0 9 25 102 55 206 46 154 64 202 102 261 25 40 52 83 60
95 21 34 26 21 19 -42z m2264 -16 c113 -9 235 -52 285 -100 38 -36 84 -164 92
-250 l5 -56 -223 -27 c-387 -47 -697 -67 -1013 -66 -236 1 -503 12 -512 22
-13 12 24 156 56 221 37 75 96 135 166 170 83 41 272 79 444 89 113 7 609 5
700 -3z m-1817 -317 c-4 -54 -8 -309 -8 -568 l0 -470 29 -63 c40 -86 89 -124
198 -154 70 -18 36 -31 -81 -31 -156 1 -404 62 -477 118 -50 38 -64 99 -70
290 -11 360 -22 960 -19 963 2 2 34 -4 71 -13 120 -30 200 -31 274 -2 97 37
91 41 83 -70z m2211 -170 c23 -176 32 -566 15 -656 -19 -108 -84 -212 -144
-235 -31 -11 -359 -72 -530 -97 -59 -9 -172 -15 -275 -15 -96 0 -264 -7 -372
-16 l-196 -17 -74 27 c-153 57 -173 91 -194 339 -16 186 -20 564 -7 611 l9 29
109 -2 c60 -1 111 -4 114 -6 2 -2 -1 -73 -7 -157 -12 -163 -6 -226 23 -258 38
-42 134 -46 176 -7 31 29 21 80 -46 248 -30 75 -57 144 -60 152 -5 12 39 15
317 20 336 6 581 23 878 61 96 13 194 24 217 25 l41 1 6 -47z"/>
<path d="M2795 2770 c-383 -23 -476 -44 -502 -117 -26 -71 -58 -273 -58 -368
0 -91 3 -104 27 -146 48 -82 139 -108 415 -116 211 -6 388 6 548 38 286 58
320 143 234 575 -12 61 -44 96 -109 119 -56 20 -336 28 -555 15z m536 -41 c70
-18 83 -41 112 -193 54 -276 27 -374 -114 -418 -153 -49 -401 -73 -653 -65
-192 6 -304 24 -346 56 -75 55 -86 178 -35 410 32 148 41 162 111 180 157 40
806 61 925 30z"/>
</g>
</svg>
